<svg xmlns="http://www.w3.org/2000/svg" width="128" height="128" viewBox="0 0 128 128" fill="none">
    <mask id="mask0_633_61" style="mask-type:alpha" maskUnits="userSpaceOnUse" x="0" y="0" width="128" height="128">
        <rect width="128" height="128" fill="#D9D9D9"/>
    </mask>
    <g mask="url(#mask0_633_61)">
        <path d="M10.6666 37.3334V10.6667H37.3333V21.3334H21.3333V37.3334H10.6666ZM10.6666 117.333V90.6667H21.3333V106.667H37.3333V117.333H10.6666ZM90.6666 117.333V106.667H106.667V90.6667H117.333V117.333H90.6666ZM106.667 37.3334V21.3334H90.6666V10.6667H117.333V37.3334H106.667ZM93.3333 93.3334H101.333V101.333H93.3333V93.3334ZM93.3333 77.3334H101.333V85.3334H93.3333V77.3334ZM85.3333 85.3334H93.3333V93.3334H85.3333V85.3334ZM77.3333 93.3334H85.3333V101.333H77.3333V93.3334ZM69.3333 85.3334H77.3333V93.3334H69.3333V85.3334ZM85.3333 69.3334H93.3333V77.3334H85.3333V69.3334ZM77.3333 77.3334H85.3333V85.3334H77.3333V77.3334ZM69.3333 69.3334H77.3333V77.3334H69.3333V69.3334ZM101.333 26.6667V58.6667H69.3333V26.6667H101.333ZM58.6666 69.3334V101.333H26.6666V69.3334H58.6666ZM58.6666 26.6667V58.6667H26.6666V26.6667H58.6666ZM50.6666 93.3334V77.3334H34.6666V93.3334H50.6666ZM50.6666 50.6667V34.6667H34.6666V50.6667H50.6666ZM93.3333 50.6667V34.6667H77.3333V50.6667H93.3333Z" fill="#493120"/>
    </g>
</svg>